<?xml version="1.0" encoding="UTF-8" standalone="no"?>
<svg
   xmlns:dc="http://purl.org/dc/elements/1.1/"
   xmlns:cc="http://creativecommons.org/ns#"
   xmlns:rdf="http://www.w3.org/1999/02/22-rdf-syntax-ns#"
   xmlns:svg="http://www.w3.org/2000/svg"
   xmlns="http://www.w3.org/2000/svg"
   xmlns:sodipodi="http://sodipodi.sourceforge.net/DTD/sodipodi-0.dtd"
   xmlns:inkscape="http://www.inkscape.org/namespaces/inkscape"
   inkscape:version="1.0 (4035a4fb49, 2020-05-01)"
   sodipodi:docname="decrementlevel.svg"
   id="svg12"
   version="1.1"
   viewBox="0 0 32 32">
  <metadata
     id="metadata18">
    <rdf:RDF>
      <cc:Work
         rdf:about="">
        <dc:format>image/svg+xml</dc:format>
        <dc:type
           rdf:resource="http://purl.org/dc/dcmitype/StillImage" />
        <dc:title></dc:title>
      </cc:Work>
    </rdf:RDF>
  </metadata>
  <defs
     id="defs16" />
  <sodipodi:namedview
     inkscape:current-layer="svg12"
     inkscape:window-maximized="1"
     inkscape:window-y="-8"
     inkscape:window-x="1912"
     inkscape:cy="14.465594"
     inkscape:cx="0.36888368"
     inkscape:zoom="13.546875"
     showgrid="true"
     id="namedview14"
     inkscape:window-height="1057"
     inkscape:window-width="1920"
     inkscape:pageshadow="2"
     inkscape:pageopacity="0"
     guidetolerance="10"
     gridtolerance="10"
     objecttolerance="10"
     borderopacity="1"
     bordercolor="#666666"
     pagecolor="#ffffff">
    <inkscape:grid
       id="grid843"
       type="xygrid" />
  </sodipodi:namedview>
  <g
     transform="translate(7.997378,1.9766185)"
     id="g860">
    <path
       d="m 1.6878212,2.9825005 c -0.2273649,0 -0.4104059,0.1830411 -0.4104059,0.410406 0,0.2273649 0.183041,0.4104059 0.4104059,0.4104059 H 22.208119 c 0.227365,0 0.410406,-0.183041 0.410406,-0.4104059 0,-0.2273649 -0.183041,-0.410406 -0.410406,-0.410406 z m 0,3.2832478 c -0.2273649,0 -0.4104059,0.183041 -0.4104059,0.4104059 0,0.227365 0.183041,0.410406 0.4104059,0.410406 H 22.208119 c 0.227365,0 0.410406,-0.183041 0.410406,-0.410406 0,-0.2273649 -0.183041,-0.4104059 -0.410406,-0.4104059 z M 14,9.548996 c -0.227365,0 -0.410406,0.1830411 -0.410406,0.410406 0,0.227365 0.183041,0.410406 0.410406,0.410406 h 8.208119 c 0.227365,0 0.410406,-0.183041 0.410406,-0.410406 0,-0.2273649 -0.183041,-0.410406 -0.410406,-0.410406 z m 0,3.283248 c -0.227365,0 -0.410406,0.183041 -0.410406,0.410406 0,0.227365 0.183041,0.410406 0.410406,0.410406 h 8.208119 c 0.227365,0 0.410406,-0.183041 0.410406,-0.410406 0,-0.227365 -0.183041,-0.410406 -0.410406,-0.410406 z m 0,3.283248 c -0.227365,0 -0.410406,0.183041 -0.410406,0.410406 0,0.227364 0.183041,0.410406 0.410406,0.410406 h 8.208119 c 0.227365,0 0.410406,-0.183042 0.410406,-0.410406 0,-0.227365 -0.183041,-0.410406 -0.410406,-0.410406 z M 1.6878212,20.219551 c -0.2273649,0 -0.4104059,0.183041 -0.4104059,0.410406 0,0.227365 0.183041,0.410406 0.4104059,0.410406 H 22.208119 c 0.227365,0 0.410406,-0.183041 0.410406,-0.410406 0,-0.227365 -0.183041,-0.410406 -0.410406,-0.410406 z m 0,3.283248 c -0.2273649,0 -0.4104059,0.183041 -0.4104059,0.410406 0,0.227365 0.183041,0.410406 0.4104059,0.410406 H 22.208119 c 0.227365,0 0.410406,-0.183041 0.410406,-0.410406 0,-0.227365 -0.183041,-0.410406 -0.410406,-0.410406 z"
       fill="#808080"
       id="path2"
       style="stroke-width:0.820812" />
    <path
       d="m 1.6878212,3.8033124 c -0.2273649,0 -0.4104059,0.1830411 -0.4104059,0.410406 0,0.2273649 0.183041,0.410406 0.4104059,0.410406 H 22.208119 c 0.227365,0 0.410406,-0.1830411 0.410406,-0.410406 0,-0.2273649 -0.183041,-0.410406 -0.410406,-0.410406 z m 0,3.2832478 c -0.2273649,0 -0.4104059,0.1830411 -0.4104059,0.410406 0,0.2273649 0.183041,0.410406 0.4104059,0.410406 H 22.208119 c 0.227365,0 0.410406,-0.1830411 0.410406,-0.410406 0,-0.2273649 -0.183041,-0.410406 -0.410406,-0.410406 z M 14,10.369808 c -0.227365,0 -0.410406,0.183041 -0.410406,0.410406 0,0.227365 0.183041,0.410406 0.410406,0.410406 h 8.208119 c 0.227365,0 0.410406,-0.183041 0.410406,-0.410406 0,-0.227365 -0.183041,-0.410406 -0.410406,-0.410406 z m 0,3.283248 c -0.227365,0 -0.410406,0.183041 -0.410406,0.410406 0,0.227365 0.183041,0.410406 0.410406,0.410406 h 8.208119 c 0.227365,0 0.410406,-0.183041 0.410406,-0.410406 0,-0.227365 -0.183041,-0.410406 -0.410406,-0.410406 z m 0,3.283248 c -0.227365,0 -0.410406,0.183041 -0.410406,0.410406 0,0.227364 0.183041,0.410405 0.410406,0.410405 h 8.208119 c 0.227365,0 0.410406,-0.183041 0.410406,-0.410405 0,-0.227365 -0.183041,-0.410406 -0.410406,-0.410406 z M 1.6878212,21.040363 c -0.2273649,0 -0.4104059,0.183041 -0.4104059,0.410406 0,0.227365 0.183041,0.410406 0.4104059,0.410406 H 22.208119 c 0.227365,0 0.410406,-0.183041 0.410406,-0.410406 0,-0.227365 -0.183041,-0.410406 -0.410406,-0.410406 z m 0,3.283248 c -0.2273649,0 -0.4104059,0.183041 -0.4104059,0.410406 0,0.227365 0.183041,0.410406 0.4104059,0.410406 H 22.208119 c 0.227365,0 0.410406,-0.183041 0.410406,-0.410406 0,-0.227365 -0.183041,-0.410406 -0.410406,-0.410406 z"
       fill="#e9e9e9"
       fill-opacity="0.992157"
       id="path4"
       style="stroke-width:0.820812" />
    <g
       fill="none"
       stroke="#4d82b8"
       stroke-linecap="round"
       stroke-width="2"
       transform="matrix(0.82081194,0,0,0.82081194,-1.185021,-0.30903748)"
       id="g10">
      <path
         d="m 3.014242,17 h 12"
         id="path6" />
      <path
         d="m 10,12 5,5 -5,5"
         stroke-linejoin="round"
         id="path8" />
    </g>
    <path
       id="path2-9"
       fill="#4d82b8"
       d="m -4.0411601,11.110464 c 0.3363688,0 0.6416591,0.04564 0.9158718,0.136904 0.2778703,0.08801 0.5136937,0.213505 0.7074718,0.376486 0.1974332,0.16298 0.3491644,0.360187 0.4551944,0.591619 0.1096843,0.228174 0.1645268,0.480793 0.1645268,0.757861 0,0.237952 -0.038389,0.459605 -0.1151689,0.664961 -0.076779,0.202096 -0.1791529,0.396044 -0.3071183,0.581842 -0.1279662,0.182538 -0.2778694,0.361817 -0.4497105,0.537836 -0.1718403,0.172759 -0.3528211,0.347149 -0.5429433,0.523169 l -1.7586208,1.575001 2.8170849,-0.0031 c 0.1389347,0 0.2504477,0.03585 0.3345407,0.107567 0.087748,0.0717 0.1316222,0.166226 0.1316222,0.283573 v 0.432791 H -6.613281 v -0.396043 c 0,-0.07497 0.016457,-0.154832 0.049364,-0.239582 0.036567,-0.08801 0.09872,-0.1695 0.1864655,-0.244471 l 2.1169298,-1.9411 c 0.1791529,-0.166241 0.3363688,-0.324332 0.4716468,-0.474274 0.1389355,-0.149943 0.2541053,-0.298256 0.3455093,-0.444938 0.095061,-0.149942 0.1663564,-0.299884 0.2138863,-0.449827 0.047533,-0.153202 0.071296,-0.312923 0.071296,-0.479163 0,-0.299885 -0.084092,-0.526428 -0.2522766,-0.67963 -0.1681843,-0.153202 -0.4058357,-0.229803 -0.7129548,-0.229803 -0.1316221,0 -0.2522757,0.01793 -0.3619616,0.05379 -0.1096851,0.03585 -0.2084017,0.08475 -0.2961506,0.146683 -0.087747,0.06193 -0.1626989,0.135273 -0.2248549,0.220024 -0.062152,0.08475 -0.1096818,0.176019 -0.1425898,0.273807 -0.058499,0.149943 -0.1389372,0.247731 -0.2413089,0.293366 -0.098717,0.04563 -0.2358233,0.05541 -0.4113187,0.02934 L -6.5035877,13.00756 c 0.054838,-0.316185 0.1535567,-0.591624 0.2961473,-0.826316 0.1425906,-0.237952 0.3199156,-0.435158 0.531974,-0.59162 0.2157151,-0.159721 0.462507,-0.278697 0.7403765,-0.356927 0.2778694,-0.08149 0.575848,-0.122236 0.8939298,-0.122233 z"
       style="stroke-width:0.820812" />
    <path
       id="path4-7"
       fill="#4d82b8"
       d="m -3.4069843,2.90234 -2.3854848,1.9221749 0.4536907,0.5771334 c 0.02391,0.029623 0.05877,0.060157 0.1026015,0.089776 0.047812,0.025921 0.1005437,0.043405 0.1603152,0.05451 0.059772,0.011106 0.1246362,0.011106 0.1923778,0 0.067734,-0.011114 0.1342635,-0.042748 0.2019969,-0.094585 l 1.0340302,-0.8272249 c -0.011943,0.1851456 -0.017631,0.3635146 -0.017631,0.5338487 l -3.3e-6,4.3108625 h 1.1558698 V 2.90234 Z"
       style="stroke-width:0.820812" />
  </g>
</svg>
