<?xml version="1.0" encoding="UTF-8" standalone="no"?>
<svg
   xmlns:dc="http://purl.org/dc/elements/1.1/"
   xmlns:cc="http://creativecommons.org/ns#"
   xmlns:rdf="http://www.w3.org/1999/02/22-rdf-syntax-ns#"
   xmlns:svg="http://www.w3.org/2000/svg"
   xmlns="http://www.w3.org/2000/svg"
   xmlns:sodipodi="http://sodipodi.sourceforge.net/DTD/sodipodi-0.dtd"
   xmlns:inkscape="http://www.inkscape.org/namespaces/inkscape"
   inkscape:version="1.0 (4035a4fb49, 2020-05-01)"
   sodipodi:docname="decrementindent.svg"
   id="svg12"
   version="1.1"
   viewBox="0 0 32 32">
  <metadata
     id="metadata18">
    <rdf:RDF>
      <cc:Work
         rdf:about="">
        <dc:format>image/svg+xml</dc:format>
        <dc:type
           rdf:resource="http://purl.org/dc/dcmitype/StillImage" />
        <dc:title></dc:title>
      </cc:Work>
    </rdf:RDF>
  </metadata>
  <defs
     id="defs16" />
  <sodipodi:namedview
     inkscape:current-layer="svg12"
     inkscape:window-maximized="1"
     inkscape:window-y="-8"
     inkscape:window-x="1912"
     inkscape:cy="16"
     inkscape:cx="16.221453"
     inkscape:zoom="27.09375"
     inkscape:pagecheckerboard="false"
     showgrid="true"
     id="namedview14"
     inkscape:window-height="1057"
     inkscape:window-width="1920"
     inkscape:pageshadow="2"
     inkscape:pageopacity="0"
     guidetolerance="10"
     gridtolerance="10"
     objecttolerance="10"
     borderopacity="1"
     bordercolor="#666666"
     pagecolor="#ffffff" />
  <path
     style="stroke-width:0.833333"
     id="path2"
     fill="#808080"
     d="m 8.7465822,4.75 c -0.2308334,0 -0.4166667,0.1858333 -0.4166667,0.4166667 0,0.2308333 0.1858333,0.4166666 0.4166667,0.4166666 H 29.579915 c 0.230834,0 0.416667,-0.1858333 0.416667,-0.4166666 C 29.996582,4.9358333 29.810749,4.75 29.579915,4.75 Z m 0,3.3333333 c -0.2308334,0 -0.4166667,0.1858334 -0.4166667,0.4166667 0,0.2308333 0.1858333,0.4166667 0.4166667,0.4166667 H 29.579915 c 0.230834,0 0.416667,-0.1858334 0.416667,-0.4166667 0,-0.2308333 -0.185833,-0.4166667 -0.416667,-0.4166667 z M 21.246582,11.416667 c -0.230833,0 -0.416666,0.185833 -0.416666,0.416666 0,0.230834 0.185833,0.416667 0.416666,0.416667 h 8.333333 c 0.230834,0 0.416667,-0.185833 0.416667,-0.416667 0,-0.230833 -0.185833,-0.416666 -0.416667,-0.416666 z m 0,3.333333 c -0.230833,0 -0.416666,0.185833 -0.416666,0.416667 0,0.230833 0.185833,0.416666 0.416666,0.416666 h 8.333333 c 0.230834,0 0.416667,-0.185833 0.416667,-0.416666 0,-0.230834 -0.185833,-0.416667 -0.416667,-0.416667 z m 0,3.333333 c -0.230833,0 -0.416666,0.185834 -0.416666,0.416667 0,0.230833 0.185833,0.416667 0.416666,0.416667 h 8.333333 c 0.230834,0 0.416667,-0.185834 0.416667,-0.416667 0,-0.230833 -0.185833,-0.416667 -0.416667,-0.416667 z M 8.7465822,22.25 c -0.2308334,0 -0.4166667,0.185833 -0.4166667,0.416667 0,0.230833 0.1858333,0.416666 0.4166667,0.416666 H 29.579915 c 0.230834,0 0.416667,-0.185833 0.416667,-0.416666 0,-0.230834 -0.185833,-0.416667 -0.416667,-0.416667 z m 0,3.333333 c -0.2308334,0 -0.4166667,0.185834 -0.4166667,0.416667 0,0.230833 0.1858333,0.416667 0.4166667,0.416667 H 29.579915 c 0.230834,0 0.416667,-0.185834 0.416667,-0.416667 0,-0.230833 -0.185833,-0.416667 -0.416667,-0.416667 z" />
  <path
     style="stroke-width:0.833333"
     id="path4"
     fill-opacity="0.992157"
     fill="#e9e9e9"
     d="M 8.7465822,5.5833333 C 8.5157488,5.5833333 8.3299155,5.7691667 8.3299155,6 c 0,0.2308333 0.1858333,0.4166667 0.4166667,0.4166667 H 29.579915 c 0.230834,0 0.416667,-0.1858334 0.416667,-0.4166667 0,-0.2308333 -0.185833,-0.4166667 -0.416667,-0.4166667 z m 0,3.3333334 C 8.5157488,8.9166667 8.3299155,9.1025 8.3299155,9.3333333 8.3299155,9.5641667 8.5157488,9.75 8.7465822,9.75 H 29.579915 c 0.230834,0 0.416667,-0.1858333 0.416667,-0.4166667 0,-0.2308333 -0.185833,-0.4166666 -0.416667,-0.4166666 z M 21.246582,12.25 c -0.230833,0 -0.416666,0.185833 -0.416666,0.416667 0,0.230833 0.185833,0.416666 0.416666,0.416666 h 8.333333 c 0.230834,0 0.416667,-0.185833 0.416667,-0.416666 0,-0.230834 -0.185833,-0.416667 -0.416667,-0.416667 z m 0,3.333333 c -0.230833,0 -0.416666,0.185834 -0.416666,0.416667 0,0.230833 0.185833,0.416667 0.416666,0.416667 h 8.333333 c 0.230834,0 0.416667,-0.185834 0.416667,-0.416667 0,-0.230833 -0.185833,-0.416667 -0.416667,-0.416667 z m 0,3.333334 c -0.230833,0 -0.416666,0.185833 -0.416666,0.416666 0,0.230834 0.185833,0.416667 0.416666,0.416667 h 8.333333 c 0.230834,0 0.416667,-0.185833 0.416667,-0.416667 0,-0.230833 -0.185833,-0.416666 -0.416667,-0.416666 z M 8.7465822,23.083333 c -0.2308334,0 -0.4166667,0.185834 -0.4166667,0.416667 0,0.230833 0.1858333,0.416667 0.4166667,0.416667 H 29.579915 c 0.230834,0 0.416667,-0.185834 0.416667,-0.416667 0,-0.230833 -0.185833,-0.416667 -0.416667,-0.416667 z m 0,3.333334 c -0.2308334,0 -0.4166667,0.185833 -0.4166667,0.416666 0,0.230834 0.1858333,0.416667 0.4166667,0.416667 H 29.579915 c 0.230834,0 0.416667,-0.185833 0.416667,-0.416667 0,-0.230833 -0.185833,-0.416666 -0.416667,-0.416666 z" />
  <g
     id="g10"
     transform="matrix(-0.83333333,0,0,0.83333333,20.853652,1.40825)"
     stroke-width="2"
     stroke-linecap="round"
     stroke="#4d82b8"
     fill="none">
    <path
       id="path6"
       d="m 3.014242,17 h 12" />
    <path
       id="path8"
       stroke-linejoin="round"
       d="m 10,12 5,5 -5,5" />
  </g>
  <path
     style="stroke-width:0.833333"
     d="m 4.0113583,13.283338 c 0.3415,0 0.6514475,0.04633 0.9298434,0.138992 0.2821091,0.08935 0.52153,0.216763 0.7182641,0.382229 0.200445,0.165467 0.3544909,0.365682 0.4621384,0.600645 0.1113575,0.231654 0.1670366,0.488128 0.1670366,0.769422 0,0.241582 -0.038975,0.466617 -0.1169258,0.675105 -0.07795,0.205179 -0.1818858,0.402085 -0.3118033,0.590717 -0.1299184,0.185323 -0.2821084,0.367337 -0.4565709,0.546041 -0.1744616,0.175395 -0.3582033,0.352445 -0.5512258,0.53115 l -1.7854483,1.599028 2.8600591,-0.0032 c 0.1410542,0 0.2542684,0.0364 0.3396442,0.109208 C 6.355457,19.295465 6.4,19.391437 6.4,19.510574 V 19.95 h -5 v -0.402084 c 0,-0.07612 0.016708,-0.157194 0.050117,-0.243238 0.037125,-0.08935 0.1002258,-0.172085 0.18931,-0.2482 l 2.1492233,-1.970711 c 0.1818858,-0.168777 0.3415,-0.32928 0.4788417,-0.481509 0.141055,-0.152231 0.2579816,-0.302806 0.35078,-0.451725 0.096511,-0.15223 0.1688941,-0.30446 0.2171491,-0.45669 0.048258,-0.155539 0.072383,-0.317696 0.072383,-0.486472 0,-0.304459 -0.085375,-0.534458 -0.256125,-0.689998 -0.17075,-0.155539 -0.4120267,-0.233308 -0.7238309,-0.233308 -0.13363,0 -0.2561241,0.0182 -0.3674833,0.05461 -0.1113583,0.0364 -0.2115808,0.08605 -0.3006683,0.14892 -0.089086,0.06288 -0.1651809,0.137338 -0.228285,0.223381 -0.0631,0.08604 -0.111355,0.178704 -0.144765,0.277984 -0.059392,0.15223 -0.1410567,0.25151 -0.24499,0.297841 -0.1002225,0.04632 -0.2394209,0.05626 -0.4175934,0.02978 L 1.5113666,15.209372 c 0.055675,-0.321008 0.1558991,-0.600649 0.300665,-0.838921 0.1447658,-0.241582 0.3247958,-0.441797 0.5400891,-0.600645 0.2190059,-0.162158 0.4695625,-0.282949 0.7516709,-0.362372 0.2821083,-0.08273 0.5846325,-0.124101 0.9075666,-0.124098 z"
     fill="#4d82b8"
     id="path2-3" />
  <path
     style="stroke-width:0.833333"
     d="M 4.6552083,4.95 2.2333333,6.9014975 2.693945,7.487435 C 2.71822,7.51751 2.753612,7.54851 2.7981117,7.578581 c 0.048542,0.026317 0.1020775,0.044067 0.1627608,0.055342 0.060683,0.011275 0.1265375,0.011275 0.1953125,0 C 3.224952,7.62264 3.2924967,7.590523 3.3612633,7.537895 L 4.4110675,6.69805 c -0.012125,0.18797 -0.0179,0.36906 -0.0179,0.5419925 l -3.3e-6,4.3766245 H 5.5666667 V 4.95 Z"
     fill="#4d82b8"
     id="path4-2" />
</svg>
