<?xml version="1.0" encoding="UTF-8" standalone="no"?>
<svg
   xmlns:dc="http://purl.org/dc/elements/1.1/"
   xmlns:cc="http://creativecommons.org/ns#"
   xmlns:rdf="http://www.w3.org/1999/02/22-rdf-syntax-ns#"
   xmlns:svg="http://www.w3.org/2000/svg"
   xmlns="http://www.w3.org/2000/svg"
   xmlns:sodipodi="http://sodipodi.sourceforge.net/DTD/sodipodi-0.dtd"
   xmlns:inkscape="http://www.inkscape.org/namespaces/inkscape"
   viewBox="0 0 32 32"
   version="1.1"
   id="svg4"
   sodipodi:docname="commonsymbols.svg"
   inkscape:version="0.92.2 (5c3e80d, 2017-08-06)">
  <metadata
     id="metadata10">
    <rdf:RDF>
      <cc:Work
         rdf:about="">
        <dc:format>image/svg+xml</dc:format>
        <dc:type
           rdf:resource="http://purl.org/dc/dcmitype/StillImage" />
        <dc:title></dc:title>
      </cc:Work>
    </rdf:RDF>
  </metadata>
  <defs
     id="defs8" />
  <sodipodi:namedview
     pagecolor="#ffffff"
     bordercolor="#666666"
     borderopacity="1"
     objecttolerance="10"
     gridtolerance="10"
     guidetolerance="10"
     inkscape:pageopacity="0"
     inkscape:pageshadow="2"
     inkscape:window-width="1600"
     inkscape:window-height="836"
     id="namedview6"
     showgrid="false"
     inkscape:zoom="14.75"
     inkscape:cx="25.627119"
     inkscape:cy="18.589832"
     inkscape:window-x="0"
     inkscape:window-y="27"
     inkscape:window-maximized="1"
     inkscape:current-layer="svg4">
    <inkscape:grid
       type="xygrid"
       id="grid3701" />
  </sodipodi:namedview>
  <path
     d="m15.992188 3c-.333269.0003875-.663725.0157529-.992188.0449219-6.5934295.4528777-10.699221 5.3465541-10.6992188 11.3300781 0 5.525 2.6494527 8.70389 6.6914068 10.724609l1.007812.900391v2l-7.375-.072266c-1.2906725-.345865-1.57131-1.662766-1.625-2.011718v3.083984h10v-3.25-.660156l-.453125-.355469c-2.8476947-1.738123-6.5426395-5.644641-6.546875-9.734375-.5-7.5 4.411529-10.4671356 9-11 .621627-.0999218 1.275227-.12891 2 0 4.588471.5328644 9.5 3.5 9 11-.004235 4.089734-3.69918 7.996252-6.546875 9.734375l-.453125.355469v.660156 3.25h10v-3.083984c-.05369.348952-.334328 1.665857-1.625 2.011718l-7.375.072266v-2l1.007812-.900391c4.041955-2.020719 6.691407-5.199609 6.691407-10.724609.000002-5.983524-4.10579-10.8772004-10.699219-11.3300781-.338462-.030719-.674544-.0453094-1.007812-.0449219z"
     fill="#3a3a38"
     id="path2" />
  <text
     xml:space="preserve"
     style="font-style:normal;font-variant:normal;font-weight:normal;font-stretch:normal;font-size:17.23515701px;line-height:1.25;font-family:sans-serif;-inkscape-font-specification:'sans-serif, Normal';font-variant-ligatures:normal;font-variant-caps:normal;font-variant-numeric:normal;font-feature-settings:normal;text-align:start;letter-spacing:0px;word-spacing:0px;writing-mode:lr-tb;text-anchor:start;fill:#de8787;fill-opacity:1;stroke:none;stroke-width:0.80789798;"
     x="6.8712292"
     y="21.908478"
     id="text3705"
     transform="scale(1.037839,0.96354058)"><tspan
       sodipodi:role="line"
       id="tspan3703"
       x="6.8712292"
       y="21.908478"
       style="stroke-width:0.80789798;fill:#de8787;">угд</tspan></text>
</svg>
