<?xml version="1.0" encoding="utf-8"?>
<!-- Generator: Adobe Illustrator 21.1.0, SVG Export Plug-In . SVG Version: 6.00 Build 0)  -->
<svg version="1.1" id="圖層_1" xmlns="http://www.w3.org/2000/svg" xmlns:xlink="http://www.w3.org/1999/xlink" x="0px" y="0px"
	 viewBox="0 0 30 30" style="enable-background:new 0 0 30 30;" xml:space="preserve">
<style type="text/css">
	.st0{fill:#6CD000;}
	.st1{fill:#AFE600;}
</style>
<g>
	<g>
		<path class="st0" d="M17.5768738,5.1441107c-0.09375-0.0927734-0.2202148-0.1445312-0.3520508-0.1445312H8.7814646
			c-0.9853516,0-1.7866211,0.8017578-1.7866211,1.7871094v16.4267578c0,0.9853516,0.8012695,1.7861328,1.7866211,1.7861328
			h12.4267569c0.9853516,0,1.7866211-0.8007812,1.7866211-1.7861328V11.0210638
			C23.0988464,10.6685247,22.7243347,10.2466497,17.5768738,5.1441107z M21.9948425,23.2134476
			c0,0.4335938-0.3530273,0.7861328-0.7866211,0.7861328H8.7814646c-0.4335938,0-0.7866211-0.3525391-0.7866211-0.7861328V6.7866888
			c0-0.4335938,0.3530273-0.7871094,0.7866211-0.7871094h8.2373037c1.7714844,1.7578125,4.4570312,4.4580078,4.9760742,5.0683594
			V23.2134476z"/>
		<path class="st0" d="M17.2643738,10.2788763V7.4390326c0-0.2763672-0.2236328-0.5-0.5-0.5s-0.5,0.2236328-0.5,0.5v2.8398438
			c0,0.7626953,0.6206055,1.3837891,1.3837891,1.3837891h2.7363281c0.2763672,0,0.5-0.2236328,0.5-0.5s-0.2236328-0.5-0.5-0.5
			h-2.7363281C17.4367371,10.6626654,17.2643738,10.4907904,17.2643738,10.2788763z"/>
		<path class="st0" d="M19.7735901,12.5488348h-9.5439444c-0.2763672,0-0.5,0.2236328-0.5,0.5v9.5439463
			c0,0.2763672,0.2236328,0.5,0.5,0.5h9.5439444c0.2763672,0,0.5-0.2236328,0.5-0.5v-9.5439463
			C20.2735901,12.7724676,20.0499573,12.5488348,19.7735901,12.5488348z M19.2735901,22.0927811h-8.5439444v-8.5439463h8.5439444
			V22.0927811z"/>
	</g>
	<g>
		<rect x="16.6807251" y="16.308733" class="st0" width="1.2" height="4.2630029"/>
		<rect x="12.1224861" y="14.911027" class="st0" width="1.2" height="5.6607089"/>
		<rect x="14.4016056" y="17.7064381" class="st1" width="1.2" height="2.8652973"/>
	</g>
</g>
</svg>
